<?xml version='1.0' encoding='ascii'?>
<svg xmlns="http://www.w3.org/2000/svg" xmlns:inkscape="http://www.inkscape.org/namespaces/inkscape" height="512" version="1.1" width="512">
    <g id="RenderLayer_LineSet" inkscape:groupmode="lineset" inkscape:label="RenderLayer_LineSet">
        <g id="fills" inkscape:groupmode="layer" inkscape:label="fills" xmlns:inkscape="http://www.inkscape.org/namespaces/inkscape">
            <path d=" M 378.540, 277.622 369.940, 277.380 360.767, 278.317 351.038, 280.523 340.770, 284.088 329.980, 289.102 338.897, 285.361 347.425, 282.789 355.545, 281.314 363.240, 280.863 370.491, 281.364 377.281, 282.745 383.592, 284.931 389.405, 287.852 394.704, 291.435 399.469, 295.606 403.683, 300.293 407.328, 305.425 410.386, 310.927 412.838, 316.728 414.668, 322.754 415.857, 328.934 416.387, 335.195 416.240, 341.464 415.398, 347.668 413.843, 353.736 411.557, 359.594 408.523, 365.169 404.722, 370.390 400.136, 375.184 395.140, 379.290 389.878, 382.757 384.401, 385.593 378.760, 387.806 373.005, 389.407 367.188, 390.405 361.358, 390.808 355.567, 390.625 349.866, 389.866 344.305, 388.540 338.935, 386.656 333.806, 384.223 328.970, 381.250 324.477, 377.746 320.378, 373.721 316.724, 369.183 313.565, 364.142 310.953, 358.607 308.937, 352.587 307.568, 346.090 306.899, 339.127 306.978, 331.706 307.857, 323.836 309.586, 315.527 307.092, 324.444 305.599, 333.005 305.050, 341.188 305.388, 348.971 306.556, 356.332 308.496, 363.248 311.153, 369.699 314.468, 375.661 318.385, 381.113 322.847, 386.033 327.796, 390.399 333.176, 394.189 338.930, 397.381 345.000, 399.952 351.329, 401.882 357.861, 403.147 364.538, 403.726 371.304, 403.597 378.100, 402.738 384.871, 401.127 391.560, 398.741 398.108, 395.560 404.459, 391.560 410.557, 386.720 416.061, 381.153 420.670, 375.058 424.402, 368.523 427.272, 361.639 429.299, 354.496 430.498, 347.183 430.888, 339.792 430.484, 332.410 429.304, 325.129 427.365, 318.039 424.683, 311.228 421.276, 304.788 417.161, 298.808 412.354, 293.378 406.872, 288.587 400.733, 284.527 393.954, 281.286 386.550, 278.954 378.540, 277.622  z" fill="rgb(255, 255, 255)" fill-opacity="1.0" fill_rule="evenodd" stroke="none" />
            <path d=" M 157.972, 271.390 148.988, 270.365 140.337, 270.368 132.055, 271.337 124.177, 273.212 116.740, 275.930 109.778, 279.432 103.327, 283.654 97.423, 288.536 92.102, 294.016 87.398, 300.033 83.348, 306.525 79.987, 313.431 77.351, 320.690 75.475, 328.241 74.395, 336.021 74.146, 343.969 74.764, 352.024 76.285, 360.125 78.744, 368.210 82.177, 376.218 86.619, 384.087 92.002, 391.408 98.154, 397.799 104.969, 403.263 112.340, 407.804 120.161, 411.424 128.327, 414.126 136.731, 415.915 145.267, 416.791 153.829, 416.760 162.310, 415.824 170.605, 413.986 178.607, 411.249 186.210, 407.616 193.308, 403.091 199.796, 397.676 205.565, 391.375 210.512, 384.190 214.528, 376.125 217.509, 367.183 219.348, 357.368 219.939, 346.681 219.176, 335.127 216.952, 322.707 213.162, 309.427 215.833, 320.329 217.234, 330.573 217.451, 340.150 216.571, 349.054 214.680, 357.276 211.865, 364.810 208.213, 371.649 203.809, 377.784 198.740, 383.208 193.093, 387.914 186.953, 391.894 180.409, 395.142 173.546, 397.649 166.450, 399.408 159.208, 400.412 151.907, 400.653 144.633, 400.124 137.473, 398.817 130.512, 396.726 123.838, 393.842 117.537, 390.158 111.696, 385.668 106.400, 380.362 101.737, 374.234 97.935, 367.761 94.916, 361.099 92.659, 354.305 91.145, 347.435 90.354, 340.547 90.267, 333.696 90.863, 326.940 92.123, 320.334 94.028, 313.935 96.558, 307.800 99.693, 301.985 103.414, 296.547 107.700, 291.542 112.532, 287.027 117.891, 283.059 123.757, 279.693 130.110, 276.986 136.930, 274.995 144.198, 273.777 151.894, 273.388 159.999, 273.883 168.493, 275.321 177.356, 277.758 186.568, 281.249 176.798, 276.771 167.254, 273.505 157.972, 271.390  z" fill="rgb(255, 255, 255)" fill-opacity="1.0" fill_rule="evenodd" stroke="none" />
            <path d=" M 393.439, 109.563 396.254, 102.721 392.995, 106.887 389.513, 111.246 385.821, 115.780 381.934, 120.471 377.865, 125.303 373.629, 130.258 369.238, 135.320 364.708, 140.470 360.052, 145.693 355.283, 150.971 350.416, 156.286 345.464, 161.622 340.442, 166.962 335.362, 172.288 330.240, 177.583 325.089, 182.830 319.923, 188.012 314.755, 193.112 309.600, 198.113 304.471, 202.997 299.383, 207.748 294.348, 212.348 289.382, 216.780 284.497, 221.027 284.425, 217.912 284.348, 215.047 284.252, 212.423 284.127, 210.027 283.959, 207.850 283.737, 205.880 283.448, 204.107 283.081, 202.519 282.622, 201.107 282.060, 199.860 281.383, 198.766 280.577, 197.815 279.632, 196.996 278.535, 196.299 277.273, 195.712 275.835, 195.225 274.208, 194.827 272.379, 194.508 270.338, 194.256 268.071, 194.061 265.566, 193.912 262.812, 193.798 259.795, 193.709 256.504, 193.634 253.151, 193.565 250.077, 193.515 247.270, 193.494 244.717, 193.516 242.406, 193.590 240.326, 193.731 238.463, 193.949 236.806, 194.256 235.342, 194.664 234.058, 195.185 232.944, 195.831 231.985, 196.615 231.171, 197.546 230.488, 198.638 229.925, 199.903 229.469, 201.352 229.108, 202.997 228.830, 204.851 228.622, 206.924 228.472, 209.229 228.368, 211.778 228.297, 214.582 228.248, 217.654 228.207, 221.005 225.243, 218.904 222.088, 216.640 218.751, 214.211 215.244, 211.619 211.576, 208.863 207.758, 205.942 203.800, 202.856 199.712, 199.606 195.504, 196.191 191.187, 192.611 186.771, 188.865 182.267, 184.954 177.684, 180.877 173.033, 176.634 168.323, 172.224 163.567, 167.648 158.773, 162.906 153.951, 157.997 149.113, 152.921 144.268, 147.677 139.427, 142.266 134.600, 136.688 129.797, 130.941 125.029, 125.027 128.567, 132.985 132.355, 140.788 136.366, 148.427 140.576, 155.898 144.959, 163.193 149.489, 170.305 154.141, 177.228 158.889, 183.956 163.708, 190.481 168.573, 196.797 173.457, 202.897 178.336, 208.775 183.183, 214.424 187.974, 219.837 192.683, 225.008 197.283, 229.929 201.751, 234.596 206.060, 238.999 210.184, 243.134 214.099, 246.994 217.779, 250.571 221.197, 253.859 224.330, 256.851 227.150, 259.542 222.940, 263.094 218.728, 266.625 214.515, 270.145 210.304, 273.663 206.095, 277.188 201.890, 280.729 197.690, 284.296 193.498, 287.897 189.315, 291.542 185.142, 295.240 180.980, 299.001 176.833, 302.833 172.700, 306.746 168.583, 310.749 164.485, 314.851 160.406, 319.062 156.348, 323.390 152.313, 327.845 148.302, 332.437 144.316, 337.173 140.358, 342.064 136.429, 347.119 132.531, 352.347 128.664, 357.757 141.368, 348.470 152.965, 340.122 163.503, 332.678 173.033, 326.100 181.605, 320.351 189.270, 315.396 196.078, 311.196 202.079, 307.716 207.323, 304.919 211.861, 302.767 215.742, 301.225 219.017, 300.255 221.737, 299.820 223.951, 299.885 225.710, 300.411 227.064, 301.363 228.063, 302.704 228.757, 304.396 229.197, 306.404 229.433, 308.690 229.516, 311.218 229.494, 313.950 229.420, 316.851 229.342, 319.883 229.497, 322.660 229.674, 325.194 229.877, 327.501 230.109, 329.593 230.374, 331.484 230.674, 333.188 231.014, 334.717 231.396, 336.086 231.823, 337.308 232.300, 338.396 232.829, 339.365 233.414, 340.227 234.058, 340.996 234.765, 341.685 235.537, 342.308 236.379, 342.879 237.292, 343.411 238.282, 343.917 239.351, 344.411 240.502, 344.907 241.738, 345.418 243.064, 345.957 244.483, 346.538 245.997, 347.175 246.257, 350.286 246.487, 353.120 246.687, 355.706 246.857, 358.072 246.999, 360.246 247.111, 362.256 247.195, 364.131 247.251, 365.900 247.279, 367.589 247.280, 369.228 247.253, 370.845 247.199, 372.468 247.120, 374.126 247.014, 375.846 246.882, 377.657 246.724, 379.588 246.542, 381.666 246.335, 383.920 246.103, 386.378 245.848, 389.068 245.568, 392.019 245.265, 395.259 244.939, 398.816 244.591, 402.719 243.331, 410.341 241.007, 417.236 237.689, 423.464 233.446, 429.086 228.348, 434.164 222.465, 438.758 215.865, 442.931 208.618, 446.742 200.794, 450.255 192.462, 453.529 183.692, 456.625 174.553, 459.607 165.114, 462.533 155.446, 465.466 145.617, 468.467 135.697, 471.597 125.755, 474.918 115.861, 478.490 106.084, 482.375 96.494, 486.634 87.161, 491.328 78.153, 496.518 69.540, 502.267 61.392, 508.634 71.273, 503.395 81.251, 498.574 91.292, 494.140 101.363, 490.065 111.429, 486.319 121.456, 482.872 131.411, 479.696 141.261, 476.761 150.971, 474.038 160.507, 471.497 169.835, 469.108 178.923, 466.844 187.735, 464.673 196.238, 462.567 204.399, 460.497 212.183, 458.433 219.557, 456.345 226.486, 454.205 232.938, 451.982 238.878, 449.649 244.272, 447.174 249.087, 444.530 253.288, 441.686 256.843, 438.613 259.008, 441.620 262.208, 444.471 266.388, 447.185 271.492, 449.781 277.463, 452.280 284.247, 454.699 291.786, 457.060 300.026, 459.380 308.911, 461.680 318.383, 463.978 328.389, 466.295 338.871, 468.649 349.774, 471.060 361.043, 473.548 372.620, 476.131 384.451, 478.829 396.480, 481.662 408.650, 484.648 420.906, 487.807 433.192, 491.159 445.453, 494.723 457.631, 498.519 469.672, 502.564 481.519, 506.880 468.507, 500.073 455.638, 493.995 442.942, 488.576 430.453, 483.746 418.199, 479.434 406.215, 475.570 394.529, 472.085 383.175, 468.906 372.183, 465.965 361.585, 463.191 351.411, 460.513 341.695, 457.862 332.466, 455.166 323.756, 452.356 315.597, 449.361 308.020, 446.111 301.056, 442.536 294.737, 438.565 289.094, 434.128 284.159, 429.154 279.963, 423.574 276.537, 417.317 273.912, 410.313 272.121, 402.491 271.446, 398.399 270.841, 394.697 270.301, 391.353 269.823, 388.335 269.403, 385.613 269.038, 383.154 268.723, 380.928 268.455, 378.903 268.230, 377.047 268.045, 375.329 267.896, 373.718 267.778, 372.183 267.689, 370.691 267.625, 369.212 267.582, 367.714 267.556, 366.165 267.543, 364.535 267.541, 362.791 267.544, 360.903 267.550, 358.839 267.555, 356.568 267.554, 354.057 267.545, 351.277 267.524, 348.194 268.886, 347.651 270.176, 347.165 271.395, 346.721 272.545, 346.303 273.626, 345.897 274.639, 345.488 275.585, 345.059 276.465, 344.595 277.281, 344.082 278.032, 343.503 278.722, 342.844 279.349, 342.088 279.915, 341.222 280.422, 340.229 280.870, 339.094 281.261, 337.802 281.595, 336.337 281.873, 334.684 282.096, 332.828 282.266, 330.753 282.383, 328.445 282.448, 325.887 282.463, 323.064 282.428, 319.962 282.513, 317.896 282.574, 315.797 282.663, 313.715 282.830, 311.698 283.128, 309.793 283.606, 308.049 284.316, 306.514 285.309, 305.238 286.636, 304.267 288.348, 303.651 290.497, 303.437 293.133, 303.674 296.307, 304.410 300.070, 305.694 304.474, 307.573 309.570, 310.097 315.408, 313.313 322.040, 317.270 329.517, 322.016 337.890, 327.599 347.209, 334.068 357.527, 341.471 368.893, 349.856 381.360, 359.272 375.615, 352.233 370.010, 345.515 364.544, 339.107 359.221, 333.001 354.041, 327.185 349.006, 321.651 344.117, 316.387 339.376, 311.385 334.785, 306.634 330.344, 302.124 326.056, 297.845 321.921, 293.788 317.942, 289.942 314.119, 286.297 310.455, 282.844 306.951, 279.573 303.608, 276.473 300.428, 273.536 297.412, 270.750 294.562, 268.105 291.879, 265.593 289.365, 263.203 287.022, 260.925 284.850, 258.748 286.414, 256.962 288.672, 254.386 291.567, 251.071 295.039, 247.069 299.030, 242.433 303.484, 237.214 308.340, 231.464 313.542, 225.234 319.030, 218.578 324.748, 211.546 330.636, 204.190 336.637, 196.563 342.692, 188.716 348.743, 180.701 354.733, 172.570 360.602, 164.374 366.293, 156.166 371.748, 147.998 376.908, 139.921 381.715, 131.987 386.111, 124.248 390.039, 116.756 393.439, 109.563  z" fill="rgb(255, 255, 255)" fill-opacity="1.0" fill_rule="evenodd" stroke="none" />
            <path d=" M 149.917, 40.072 138.863, 39.147 127.597, 39.422 116.201, 40.951 104.760, 43.788 93.355, 47.988 82.070, 53.603 71.480, 60.569 62.130, 68.674 54.022, 77.770 47.161, 87.708 41.549, 98.340 37.190, 109.519 34.088, 121.095 32.246, 132.922 31.666, 144.851 32.353, 156.734 34.311, 168.422 37.541, 179.769 42.048, 190.624 47.836, 200.842 54.907, 210.272 63.265, 218.768 72.913, 226.181 83.855, 232.363 96.095, 237.166 109.635, 240.442 124.478, 242.043 140.629, 241.820 158.091, 239.626 176.867, 235.312 161.486, 238.240 147.114, 239.446 133.757, 239.052 121.418, 237.178 110.101, 233.946 99.811, 229.477 90.551, 223.891 82.325, 217.310 75.138, 209.854 68.993, 201.645 63.895, 192.803 59.847, 183.451 56.855, 173.708 54.920, 163.695 54.049, 153.534 54.244, 143.346 55.510, 133.252 57.851, 123.372 61.271, 113.828 65.773, 104.741 71.363, 96.232 78.044, 88.421 85.820, 81.430 94.695, 75.380 103.990, 70.555 113.490, 66.834 123.118, 64.184 132.798, 62.575 142.451, 61.974 152.000, 62.351 161.369, 63.673 170.479, 65.909 179.254, 69.029 187.617, 72.999 195.489, 77.789 202.793, 83.367 209.453, 89.702 215.391, 96.762 220.530, 104.516 224.792, 112.932 228.100, 121.978 230.377, 131.624 231.545, 141.838 231.528, 152.587 230.248, 163.841 227.627, 175.569 223.588, 187.738 218.054, 200.317 225.003, 187.032 230.247, 173.974 233.868, 161.198 235.950, 148.758 236.576, 136.707 235.828, 125.099 233.789, 113.989 230.543, 103.431 226.173, 93.478 220.760, 84.185 214.389, 75.606 207.143, 67.794 199.103, 60.804 190.354, 54.690 180.977, 49.506 171.057, 45.305 160.676, 42.142 149.917, 40.072  z" fill="rgb(255, 255, 255)" fill-opacity="1.0" fill_rule="evenodd" stroke="none" />
            <path d=" M 398.656, 5.094 384.893, 4.114 371.122, 4.611 357.512, 6.559 344.230, 9.928 331.444, 14.691 319.324, 20.818 308.036, 28.282 297.750, 37.053 288.632, 47.103 280.852, 58.405 274.578, 70.928 269.977, 84.646 267.219, 99.529 266.470, 115.549 267.899, 132.677 271.675, 150.885 277.965, 170.145 286.937, 190.427 280.272, 173.679 275.773, 157.698 273.304, 142.513 272.730, 128.156 273.914, 114.659 276.721, 102.052 281.015, 90.366 286.660, 79.632 293.519, 69.881 301.458, 61.144 310.340, 53.452 320.029, 46.836 330.389, 41.327 341.285, 36.956 352.580, 33.754 364.139, 31.752 375.826, 30.980 387.504, 31.471 399.038, 33.254 410.293, 36.362 421.131, 40.823 431.418, 46.671 441.017, 53.936 449.792, 62.648 457.274, 72.101 463.553, 82.028 468.649, 92.334 472.580, 102.924 475.365, 113.704 477.023, 124.581 477.572, 135.460 477.032, 146.246 475.421, 156.845 472.757, 167.164 469.060, 177.108 464.349, 186.582 458.641, 195.492 451.956, 203.745 444.312, 211.245 435.729, 217.899 426.225, 223.612 415.819, 228.290 404.529, 231.840 392.374, 234.165 379.373, 235.173 365.545, 234.769 350.908, 232.859 335.482, 229.349 352.015, 234.305 367.919, 237.384 383.150, 238.690 397.667, 238.329 411.426, 236.406 424.383, 233.028 436.497, 228.300 447.724, 222.327 458.020, 215.215 467.344, 207.070 475.652, 197.996 482.901, 188.100 489.048, 177.487 494.051, 166.263 497.865, 154.534 500.449, 142.404 501.759, 129.979 501.752, 117.365 500.385, 104.668 497.616, 91.993 493.401, 79.446 487.698, 67.132 480.463, 55.156 471.653, 43.625 461.468, 33.175 450.267, 24.374 438.216, 17.194 425.486, 11.606 412.243, 7.582 398.656, 5.094  z" fill="rgb(255, 255, 255)" fill-opacity="1.0" fill_rule="evenodd" stroke="none" />
        </g>
        <g id="strokes" inkscape:groupmode="layer" inkscape:label="strokes">
            <path d=" M 398.656, 5.094 388.681, 4.384 384.893, 4.114 374.899, 4.475 371.122, 4.611 361.223, 6.028 357.512, 6.559 347.819, 9.018 344.230, 9.928 334.859, 13.419 331.444, 14.691 322.520, 19.202 319.324, 20.818 310.982, 26.334 308.036, 28.282 300.427, 34.770 297.750, 37.053 291.031, 44.460 288.632, 47.103 282.962, 55.340 280.852, 58.405 276.373, 67.346 274.578, 70.928 271.398, 80.409 269.977, 84.646 268.155, 94.478 267.219, 99.529 266.752, 109.518 266.470, 115.549 267.301, 125.514 267.899, 132.677 269.929, 142.469 271.675, 150.885 274.779, 160.391 277.884, 169.897 277.965, 170.145 282.010, 179.290 286.056, 188.435 286.937, 190.427 283.240, 181.136 280.272, 173.679 277.562, 164.054 275.773, 157.698 274.168, 147.827 273.304, 142.513 272.905, 132.521 272.730, 128.156 273.604, 118.195 273.914, 114.659 276.088, 104.898 276.721, 102.052 280.170, 92.665 281.015, 90.366 285.669, 81.515 286.660, 79.632 292.413, 71.453 293.519, 69.881 300.244, 62.480 301.458, 61.144 309.017, 54.597 310.340, 53.452 318.598, 47.813 320.029, 46.836 328.858, 42.141 330.389, 41.327 339.670, 37.604 341.285, 36.956 350.906, 34.229 352.580, 33.754 362.433, 32.047 364.139, 31.752 374.117, 31.093 375.826, 30.980 385.817, 31.400 387.504, 31.471 397.387, 32.999 399.038, 33.254 408.678, 35.916 410.293, 36.362 419.540, 40.168 421.131, 40.823 429.825, 45.765 431.418, 46.671 439.392, 52.706 441.017, 53.936 448.114, 60.981 449.792, 62.648 455.998, 70.489 457.274, 72.101 462.620, 80.552 463.553, 82.028 467.985, 90.992 468.649, 92.334 472.129, 101.709 472.580, 102.924 475.081, 112.606 475.365, 113.704 476.872, 123.590 477.023, 124.581 477.527, 134.568 477.572, 135.460 477.072, 145.447 477.032, 146.246 475.529, 156.132 475.421, 156.845 472.921, 166.528 472.757, 167.164 469.272, 176.537 469.060, 177.108 464.607, 186.061 464.349, 186.582 458.955, 195.002 458.641, 195.492 452.346, 203.263 451.956, 203.745 444.818, 210.749 444.312, 211.245 436.409, 217.372 435.729, 217.899 427.159, 223.051 426.225, 223.612 417.104, 227.712 415.819, 228.290 406.279, 231.289 404.529, 231.840 394.707, 233.719 392.374, 234.165 382.404, 234.938 379.373, 235.173 369.377, 234.881 365.545, 234.769 355.629, 233.475 350.908, 232.859 341.158, 230.640 335.482, 229.349 345.061, 232.220 352.015, 234.305 361.833, 236.206 367.919, 237.384 377.882, 238.238 383.150, 238.690 393.147, 238.441 397.667, 238.329 407.571, 236.945 411.426, 236.406 421.102, 233.884 424.383, 233.028 433.699, 229.392 436.497, 228.300 445.325, 223.603 447.724, 222.327 455.952, 216.644 458.020, 215.215 465.551, 208.636 467.344, 207.070 474.097, 199.694 475.652, 197.996 481.561, 189.929 482.901, 188.100 487.913, 179.447 489.048, 177.487 493.119, 168.353 494.051, 166.263 497.143, 156.754 497.865, 154.534 499.948, 144.753 500.449, 142.404 501.497, 132.459 501.759, 129.979 501.753, 119.979 501.752, 117.365 500.682, 107.423 500.385, 104.668 498.251, 94.899 497.616, 91.993 494.432, 82.514 493.401, 79.446 489.199, 70.372 487.698, 67.132 482.527, 58.572 480.463, 55.156 474.392, 47.210 471.653, 43.625 464.674, 36.464 461.468, 33.175 453.605, 26.997 450.267, 24.374 441.676, 19.255 438.216, 17.194 429.060, 13.175 425.486, 11.606 415.918, 8.699 412.243, 7.582 402.406, 5.781 398.656, 5.094 " fill="none" stroke="rgb(0, 3, 255)" stroke-linecap="butt" stroke-linejoin="round" stroke-opacity="0.0" stroke-width="7.0" />
            <path d=" M 149.917, 40.072 139.952, 39.238 138.863, 39.147 128.866, 39.391 127.597, 39.422 117.686, 40.752 116.201, 40.951 106.495, 43.358 104.760, 43.788 95.376, 47.244 93.355, 47.988 84.402, 52.443 82.070, 53.603 73.715, 59.099 71.480, 60.569 63.924, 67.119 62.130, 68.674 55.476, 76.139 54.022, 77.770 48.341, 85.999 47.161, 87.708 42.493, 96.551 41.549, 98.340 37.916, 107.657 37.190, 109.519 34.602, 119.178 34.088, 121.095 32.549, 130.976 32.246, 132.922 31.760, 142.911 31.666, 144.851 32.244, 154.835 32.353, 156.734 34.005, 166.597 34.311, 168.422 37.049, 178.040 37.541, 179.769 41.376, 189.004 42.048, 190.624 46.977, 199.325 47.836, 200.842 53.835, 208.842 54.907, 210.272 61.920, 217.401 63.265, 218.768 71.195, 224.861 72.913, 226.181 81.620, 231.100 83.855, 232.363 93.164, 236.016 96.095, 237.166 105.814, 239.518 109.635, 240.442 119.577, 241.514 124.478, 242.043 134.477, 241.905 140.629, 241.820 150.551, 240.573 158.091, 239.626 167.837, 237.387 176.867, 235.312 167.044, 237.182 161.486, 238.240 151.521, 239.076 147.114, 239.446 137.119, 239.151 133.757, 239.052 123.870, 237.551 121.418, 237.178 111.803, 234.432 110.101, 233.946 100.929, 229.962 99.811, 229.477 91.248, 224.311 90.551, 223.891 82.743, 217.643 82.325, 217.310 75.385, 210.110 75.138, 209.854 69.146, 201.848 68.993, 201.645 63.998, 192.982 63.895, 192.803 59.923, 183.626 59.847, 183.451 56.911, 173.892 56.855, 173.708 54.958, 163.889 54.920, 163.695 54.066, 153.732 54.049, 153.534 54.240, 143.536 54.244, 143.346 55.488, 133.424 55.510, 133.252 57.816, 123.521 57.851, 123.372 61.224, 113.958 61.271, 113.828 65.711, 104.868 65.773, 104.741 71.264, 96.383 71.363, 96.232 77.863, 88.632 78.044, 88.421 85.481, 81.735 85.820, 81.430 94.083, 75.797 94.695, 75.380 103.571, 70.772 103.990, 70.555 113.301, 66.908 113.490, 66.834 123.118, 64.184 132.798, 62.575 142.451, 61.974 152.000, 62.351 161.369, 63.673 170.479, 65.909 179.254, 69.029 187.617, 72.999 195.489, 77.789 202.793, 83.367 209.453, 89.702 215.391, 96.762 220.530, 104.516 224.792, 112.932 228.100, 121.978 230.377, 131.624 231.514, 141.559 231.545, 141.838 231.529, 151.837 231.528, 152.587 230.398, 162.523 230.248, 163.841 228.066, 173.600 227.627, 175.569 224.477, 185.060 223.588, 187.738 219.561, 196.891 218.054, 200.317 222.689, 191.456 225.003, 187.032 228.730, 177.752 230.247, 173.974 232.974, 164.353 233.868, 161.198 235.519, 151.335 235.950, 148.758 236.469, 138.771 236.576, 136.707 235.933, 126.727 235.828, 125.099 234.023, 115.263 233.789, 113.989 230.851, 104.431 230.543, 103.431 226.523, 94.275 226.173, 93.478 221.140, 84.837 220.760, 84.185 214.798, 76.157 214.389, 75.606 207.588, 68.274 207.143, 67.794 199.596, 61.233 199.103, 60.804 190.906, 55.076 190.354, 54.690 181.602, 49.851 180.977, 49.506 171.769, 45.606 171.057, 45.305 161.491, 42.391 160.676, 42.142 150.856, 40.252 149.917, 40.072 " fill="none" stroke="rgb(0, 3, 255)" stroke-linecap="butt" stroke-linejoin="round" stroke-opacity="0.0" stroke-width="7.0" />
            <path d=" M 393.439, 109.563 396.254, 102.721 392.995, 106.887 389.513, 111.246 385.821, 115.780 381.934, 120.471 377.865, 125.303 373.629, 130.258 369.238, 135.320 364.708, 140.470 360.052, 145.693 355.283, 150.971 350.416, 156.286 345.464, 161.622 340.442, 166.962 335.362, 172.288 330.240, 177.583 325.089, 182.830 319.923, 188.012 314.755, 193.112 309.600, 198.113 304.471, 202.997 299.383, 207.748 294.348, 212.348 289.382, 216.780 284.497, 221.027 284.425, 217.912 284.348, 215.047 284.252, 212.423 284.127, 210.027 283.959, 207.850 283.737, 205.880 283.448, 204.107 283.081, 202.519 282.622, 201.107 282.060, 199.860 281.383, 198.766 280.577, 197.815 279.632, 196.996 278.535, 196.299 277.273, 195.712 275.835, 195.225 274.208, 194.827 272.379, 194.508 270.338, 194.256 268.071, 194.061 265.566, 193.912 262.812, 193.798 259.795, 193.709 256.504, 193.634 253.151, 193.565 250.077, 193.515 247.270, 193.494 244.717, 193.516 242.406, 193.590 240.326, 193.731 238.463, 193.949 236.806, 194.256 235.342, 194.664 234.058, 195.185 232.944, 195.831 231.985, 196.615 231.171, 197.546 230.488, 198.638 229.925, 199.903 229.469, 201.352 229.108, 202.997 228.830, 204.851 228.622, 206.924 228.472, 209.229 228.368, 211.778 228.297, 214.582 228.248, 217.654 228.207, 221.005 225.243, 218.904 222.088, 216.640 218.751, 214.211 215.244, 211.619 211.576, 208.863 207.758, 205.942 203.800, 202.856 199.712, 199.606 195.504, 196.191 191.187, 192.611 186.771, 188.865 182.267, 184.954 177.684, 180.877 173.033, 176.634 168.323, 172.224 163.567, 167.648 158.773, 162.906 153.951, 157.997 149.113, 152.921 144.268, 147.677 139.427, 142.266 134.600, 136.688 129.797, 130.941 125.029, 125.027 128.567, 132.985 132.355, 140.788 136.366, 148.427 140.576, 155.898 144.959, 163.193 149.489, 170.305 154.141, 177.228 158.889, 183.956 163.708, 190.481 168.573, 196.797 173.457, 202.897 178.336, 208.775 183.183, 214.424 187.974, 219.837 192.683, 225.008 197.283, 229.929 201.751, 234.596 206.060, 238.999 210.184, 243.134 214.099, 246.994 217.779, 250.571 221.197, 253.859 224.330, 256.851 227.150, 259.542 222.940, 263.094 218.728, 266.625 214.515, 270.145 210.304, 273.663 206.095, 277.188 201.890, 280.729 197.690, 284.296 193.498, 287.897 189.315, 291.542 185.142, 295.240 180.980, 299.001 176.833, 302.833 172.700, 306.746 168.583, 310.749 164.485, 314.851 160.406, 319.062 156.348, 323.390 152.313, 327.845 148.302, 332.437 144.316, 337.173 140.358, 342.064 136.429, 347.119 132.531, 352.347 128.664, 357.757 136.737, 351.856 141.368, 348.470 149.484, 342.627 152.965, 340.122 161.132, 334.352 163.503, 332.678 171.733, 326.997 173.033, 326.100 181.338, 320.530 181.605, 320.351 189.270, 315.396 196.078, 311.196 202.079, 307.716 207.323, 304.919 211.861, 302.767 215.742, 301.225 219.017, 300.255 221.737, 299.820 223.951, 299.885 225.710, 300.411 227.064, 301.363 228.063, 302.704 228.757, 304.396 229.197, 306.404 229.433, 308.690 229.516, 311.218 229.494, 313.950 229.420, 316.851 229.342, 319.883 229.497, 322.660 229.674, 325.194 229.877, 327.501 230.109, 329.593 230.374, 331.484 230.674, 333.188 231.014, 334.717 231.396, 336.086 231.823, 337.308 232.300, 338.396 232.829, 339.365 233.414, 340.227 234.058, 340.996 234.765, 341.685 235.537, 342.308 236.379, 342.879 237.292, 343.411 238.282, 343.917 239.351, 344.411 240.502, 344.907 241.738, 345.418 243.064, 345.957 244.483, 346.538 245.997, 347.175 246.257, 350.286 246.487, 353.120 246.687, 355.706 246.857, 358.072 246.999, 360.246 247.111, 362.256 247.195, 364.131 247.251, 365.900 247.279, 367.589 247.280, 369.228 247.253, 370.845 247.199, 372.468 247.120, 374.126 247.014, 375.846 246.882, 377.657 246.724, 379.588 246.542, 381.666 246.335, 383.920 246.103, 386.378 245.848, 389.068 245.568, 392.019 245.265, 395.259 244.939, 398.816 244.591, 402.719 243.331, 410.341 241.007, 417.236 237.689, 423.464 233.446, 429.086 228.348, 434.164 222.465, 438.758 215.865, 442.931 208.618, 446.742 200.794, 450.255 192.462, 453.529 183.692, 456.625 174.553, 459.607 165.114, 462.533 155.545, 465.436 155.446, 465.466 145.882, 468.386 145.617, 468.467 136.080, 471.476 135.697, 471.597 126.212, 474.765 125.755, 474.918 116.349, 478.314 115.861, 478.490 106.568, 482.183 106.084, 482.375 96.945, 486.434 96.494, 486.634 87.561, 491.127 87.161, 491.328 78.496, 496.320 78.153, 496.518 69.835, 502.070 69.540, 502.267 61.661, 508.424 61.392, 508.634 70.227, 503.950 71.273, 503.395 80.277, 499.044 81.251, 498.574 90.399, 494.535 91.292, 494.140 100.562, 490.389 101.363, 490.065 110.735, 486.577 111.429, 486.319 120.886, 483.068 121.456, 482.872 130.983, 479.833 131.411, 479.696 140.995, 476.841 141.261, 476.761 150.971, 474.038 160.507, 471.497 169.835, 469.108 178.923, 466.844 187.735, 464.673 196.238, 462.567 204.399, 460.497 212.183, 458.433 219.557, 456.345 226.486, 454.205 232.938, 451.982 238.878, 449.649 244.272, 447.174 249.087, 444.530 253.288, 441.686 256.843, 438.613 259.008, 441.620 262.208, 444.471 266.388, 447.185 271.492, 449.781 277.463, 452.280 284.247, 454.699 291.786, 457.060 300.026, 459.380 308.911, 461.680 318.383, 463.978 328.126, 466.234 328.389, 466.295 338.146, 468.486 338.871, 468.649 348.635, 470.809 349.774, 471.060 359.539, 473.216 361.043, 473.548 370.803, 475.725 372.620, 476.131 382.370, 478.354 384.451, 478.829 394.185, 481.121 396.480, 481.662 406.192, 484.045 408.650, 484.648 418.334, 487.144 420.906, 487.807 430.554, 490.440 433.192, 491.159 442.795, 493.951 445.453, 494.723 455.000, 497.699 457.631, 498.519 467.110, 501.704 469.672, 502.564 479.068, 505.987 481.519, 506.880 472.658, 502.245 468.507, 500.073 459.465, 495.802 455.638, 493.995 446.441, 490.069 442.942, 488.576 433.616, 484.969 430.453, 483.746 421.020, 480.426 418.199, 479.434 408.682, 476.366 406.215, 475.570 396.632, 472.712 394.529, 472.085 384.899, 469.389 383.175, 468.906 373.515, 466.322 372.183, 465.965 362.509, 463.433 361.585, 463.191 351.914, 460.645 351.411, 460.513 341.695, 457.862 332.466, 455.166 323.756, 452.356 315.597, 449.361 308.020, 446.111 301.056, 442.536 294.737, 438.565 289.094, 434.128 284.159, 429.154 279.963, 423.574 276.537, 417.317 273.912, 410.313 272.121, 402.491 271.446, 398.399 270.841, 394.697 270.301, 391.353 269.823, 388.335 269.403, 385.613 269.038, 383.154 268.723, 380.928 268.455, 378.903 268.230, 377.047 268.045, 375.329 267.896, 373.718 267.778, 372.183 267.689, 370.691 267.625, 369.212 267.582, 367.714 267.556, 366.165 267.543, 364.535 267.541, 362.791 267.544, 360.903 267.550, 358.839 267.555, 356.568 267.554, 354.057 267.545, 351.277 267.524, 348.194 268.886, 347.651 270.176, 347.165 271.395, 346.721 272.545, 346.303 273.626, 345.897 274.639, 345.488 275.585, 345.059 276.465, 344.595 277.281, 344.082 278.032, 343.503 278.722, 342.844 279.349, 342.088 279.915, 341.222 280.422, 340.229 280.870, 339.094 281.261, 337.802 281.595, 336.337 281.873, 334.684 282.096, 332.828 282.266, 330.753 282.383, 328.445 282.448, 325.887 282.463, 323.064 282.428, 319.962 282.513, 317.896 282.574, 315.797 282.663, 313.715 282.830, 311.698 283.128, 309.793 283.606, 308.049 284.316, 306.514 285.309, 305.238 286.636, 304.267 288.348, 303.651 290.497, 303.437 293.133, 303.674 296.307, 304.410 300.070, 305.694 304.474, 307.573 309.570, 310.097 315.408, 313.313 322.040, 317.270 329.517, 322.016 337.890, 327.599 346.105, 333.301 347.209, 334.068 355.334, 339.898 357.527, 341.471 365.574, 347.407 368.893, 349.856 376.873, 355.883 381.360, 359.272 375.615, 352.233 370.010, 345.515 364.544, 339.107 359.221, 333.001 354.041, 327.185 349.006, 321.651 344.117, 316.387 339.376, 311.385 334.785, 306.634 330.344, 302.124 326.056, 297.845 321.921, 293.788 317.942, 289.942 314.119, 286.297 310.455, 282.844 306.951, 279.573 303.608, 276.473 300.428, 273.536 297.412, 270.750 294.562, 268.105 291.879, 265.593 289.365, 263.203 287.022, 260.925 284.850, 258.748 286.414, 256.962 288.672, 254.386 291.567, 251.071 295.039, 247.069 299.030, 242.433 303.484, 237.214 308.340, 231.464 313.542, 225.234 319.030, 218.578 324.748, 211.546 330.636, 204.190 336.637, 196.563 342.692, 188.716 348.743, 180.701 354.733, 172.570 360.602, 164.374 366.293, 156.166 371.748, 147.998 376.908, 139.921 381.715, 131.987 386.111, 124.248 390.039, 116.756 393.439, 109.563 " fill="none" stroke="rgb(0, 3, 255)" stroke-linecap="butt" stroke-linejoin="round" stroke-opacity="0.0" stroke-width="7.0" />
            <path d=" M 157.972, 271.390 148.988, 270.365 140.337, 270.368 132.055, 271.337 124.177, 273.212 116.740, 275.930 109.778, 279.432 103.327, 283.654 97.423, 288.536 92.102, 294.016 87.398, 300.033 83.348, 306.525 79.987, 313.431 77.351, 320.690 75.475, 328.241 74.395, 336.021 74.146, 343.969 74.764, 352.024 76.285, 360.125 78.744, 368.210 82.177, 376.218 86.619, 384.087 92.002, 391.408 98.154, 397.799 104.969, 403.263 112.340, 407.804 120.161, 411.424 128.327, 414.126 136.731, 415.915 145.267, 416.791 153.829, 416.760 162.310, 415.824 170.605, 413.986 178.607, 411.249 186.210, 407.616 193.308, 403.091 199.796, 397.676 205.565, 391.375 210.512, 384.190 214.528, 376.125 217.509, 367.183 219.348, 357.368 219.900, 347.383 219.939, 346.681 219.280, 336.703 219.176, 335.127 217.413, 325.283 216.952, 322.707 214.208, 313.091 213.162, 309.427 215.542, 319.140 215.833, 320.329 217.188, 330.237 217.234, 330.573 217.451, 340.150 216.571, 349.054 214.680, 357.276 211.865, 364.810 208.213, 371.649 203.809, 377.784 198.740, 383.208 193.093, 387.914 186.953, 391.894 180.409, 395.142 173.546, 397.649 166.450, 399.408 159.208, 400.412 151.907, 400.653 144.633, 400.124 137.473, 398.817 130.512, 396.726 123.838, 393.842 117.537, 390.158 111.696, 385.668 106.400, 380.362 101.737, 374.234 97.935, 367.761 94.916, 361.099 92.659, 354.305 91.145, 347.435 90.354, 340.547 90.267, 333.696 90.863, 326.940 92.123, 320.334 94.028, 313.935 96.558, 307.800 99.693, 301.985 103.414, 296.547 107.700, 291.542 112.532, 287.027 117.891, 283.059 123.757, 279.693 130.110, 276.986 136.930, 274.995 144.198, 273.777 151.894, 273.388 159.999, 273.883 168.493, 275.321 177.356, 277.758 186.568, 281.249 177.478, 277.082 176.798, 276.771 167.254, 273.505 157.972, 271.390 " fill="none" stroke="rgb(0, 3, 255)" stroke-linecap="butt" stroke-linejoin="round" stroke-opacity="0.0" stroke-width="7.0" />
            <path d=" M 378.540, 277.622 369.940, 277.380 360.767, 278.317 351.038, 280.523 341.591, 283.803 340.770, 284.088 331.702, 288.303 329.980, 289.102 338.897, 285.361 347.425, 282.789 355.545, 281.314 363.240, 280.863 370.491, 281.364 377.281, 282.745 383.592, 284.931 389.405, 287.852 394.704, 291.435 399.469, 295.606 403.683, 300.293 407.328, 305.425 410.386, 310.927 412.838, 316.728 414.668, 322.754 415.857, 328.934 416.387, 335.195 416.240, 341.464 415.398, 347.668 413.843, 353.736 411.557, 359.594 408.523, 365.169 404.722, 370.390 400.136, 375.184 395.140, 379.290 389.878, 382.757 384.401, 385.593 378.760, 387.806 373.005, 389.407 367.188, 390.405 361.358, 390.808 355.567, 390.625 349.866, 389.866 344.305, 388.540 338.935, 386.656 333.806, 384.223 328.970, 381.250 324.477, 377.746 320.378, 373.721 316.724, 369.183 313.565, 364.142 310.953, 358.607 308.937, 352.587 307.568, 346.090 306.899, 339.127 306.978, 331.706 307.857, 323.836 309.586, 315.527 307.092, 324.444 305.599, 333.005 305.050, 341.188 305.388, 348.971 306.556, 356.332 308.496, 363.248 311.153, 369.699 314.468, 375.661 318.385, 381.113 322.847, 386.033 327.796, 390.399 333.176, 394.189 338.930, 397.381 345.000, 399.952 351.329, 401.882 357.861, 403.147 364.538, 403.726 371.304, 403.597 378.100, 402.738 384.871, 401.127 391.560, 398.741 398.108, 395.560 404.459, 391.560 410.557, 386.720 416.061, 381.153 420.670, 375.058 424.402, 368.523 427.272, 361.639 429.299, 354.496 430.498, 347.183 430.888, 339.792 430.484, 332.410 429.304, 325.129 427.365, 318.039 424.683, 311.228 421.276, 304.788 417.161, 298.808 412.354, 293.378 406.872, 288.587 400.733, 284.527 393.954, 281.286 386.550, 278.954 378.540, 277.622 " fill="none" stroke="rgb(0, 3, 255)" stroke-linecap="butt" stroke-linejoin="round" stroke-opacity="0.0" stroke-width="7.0" />
        </g>
    </g>
</svg>
